<svg width="157" height="87" viewBox="0 0 157 87" fill="none" xmlns="http://www.w3.org/2000/svg">
<defs>
<linearGradient id="paint0_linear" x1="72.4091" y1="-4.66846e-05" x2="33.0462" y2="39.5877" gradientUnits="userSpaceOnUse">
<stop stop-color="#B620E0"/>
<stop offset="1" stop-color="#F7B500"/>
</linearGradient>
<linearGradient id="paint1_linear" x1="127.126" y1="28.0539" x2="75.3628" y2="79.8914" gradientUnits="userSpaceOnUse">
<stop stop-color="#B620E0"/>
<stop offset="1" stop-color="#F7B500"/>
</linearGradient>
<linearGradient id="paint2_linear" x1="65.6729" y1="38.2759" x2="50.1868" y2="59.0107" gradientUnits="userSpaceOnUse">
<stop stop-color="#FEBBBA"/>
<stop offset="1" stop-color="#FF928E"/>
</linearGradient>
<linearGradient id="paint3_linear" x1="60.5295" y1="43.441" x2="69.5694" y2="52.7896" gradientUnits="userSpaceOnUse">
<stop stop-color="#FEBBBA"/>
<stop offset="1" stop-color="#FF928E"/>
</linearGradient>
<linearGradient id="paint4_linear" x1="35.2197" y1="57.4915" x2="40.4677" y2="57.3917" gradientUnits="userSpaceOnUse">
<stop stop-color="#FEBBBA"/>
<stop offset="1" stop-color="#FF928E"/>
</linearGradient>
<linearGradient id="paint5_linear" x1="42.0458" y1="80.6119" x2="41.4045" y2="87.3712" gradientUnits="userSpaceOnUse">
<stop stop-color="#FEBBBA"/>
<stop offset="1" stop-color="#FF928E"/>
</linearGradient>
<linearGradient id="paint6_linear" x1="48.4017" y1="81.2169" x2="47.7614" y2="87.9661" gradientUnits="userSpaceOnUse">
<stop stop-color="#FEBBBA"/>
<stop offset="1" stop-color="#FF928E"/>
</linearGradient>
<linearGradient id="paint7_linear" x1="42.9126" y1="37.2922" x2="40.2318" y2="50.0433" gradientUnits="userSpaceOnUse">
<stop stop-color="#FEBBBA"/>
<stop offset="1" stop-color="#FF928E"/>
</linearGradient>
<linearGradient id="paint8_linear" x1="41.3916" y1="43.0786" x2="41.0608" y2="37.7101" gradientUnits="userSpaceOnUse">
<stop stop-color="#FEBBBA"/>
<stop offset="1" stop-color="#FF928E"/>
</linearGradient>
</defs>
<path d="M83.6057 16.9957C46.594 16.2485 11.1155 29.9102 13.5644 38.5272C14.9707 43.4732 30.1941 46.3046 28.1731 50.2618C26.1275 54.26 4.59764 54.086 0.781747 57.822C-5.87148 64.334 31.0145 84.3419 70.6683 86.5863C103.939 88.4699 144.198 79.4881 152.725 60.4013C165.021 32.8802 144.729 18.2296 83.6057 16.9957Z" fill="#151515"/>
<path d="M82.7467 25.3687L84.4095 24.3769C85.217 24.7812 86.0977 25.0624 87.0197 25.1919L87.8113 26.9481C87.8399 27.0112 87.9035 27.046 87.9703 27.0397L90.288 26.8344C90.3548 26.828 90.412 26.7807 90.4279 26.7143L90.8953 24.8476C91.7791 24.557 92.5962 24.1274 93.3211 23.5873L95.1333 24.2758C95.1969 24.3011 95.27 24.2822 95.3113 24.2285L96.8056 22.4565C96.8501 22.4059 96.8565 22.3301 96.8215 22.2733L95.8232 20.6213C96.2301 19.819 96.5131 18.944 96.6434 18.028L98.4111 17.2415C98.4747 17.2131 98.5097 17.1499 98.5033 17.0836L98.2967 14.7809C98.2903 14.7146 98.2426 14.6577 98.1759 14.6419L96.2969 14.1776C96.0044 13.2995 95.572 12.4877 95.0284 11.7675L95.7214 9.96711C95.7469 9.90394 95.7278 9.83129 95.6738 9.79023L93.8902 8.30565C93.8393 8.26143 93.763 8.25512 93.7058 8.28986L92.043 9.28168C91.2354 8.87737 90.3548 8.59625 89.4328 8.46675L88.6411 6.71053C88.6125 6.64736 88.5489 6.61261 88.4822 6.61893L86.1644 6.82424C86.0977 6.83056 86.0404 6.87794 86.0245 6.94427L85.5572 8.81104C84.6733 9.10164 83.8563 9.53122 83.1314 10.0713L81.3192 9.38276C81.2556 9.35749 81.1825 9.37644 81.1411 9.43014L79.6469 11.2021C79.6023 11.2527 79.596 11.3285 79.631 11.3853L80.6293 13.0373C80.2223 13.8396 79.9394 14.7146 79.809 15.6306L78.0413 16.4171C77.9777 16.4455 77.9427 16.5087 77.9491 16.575L78.1558 18.8777C78.1621 18.944 78.2098 19.0009 78.2766 19.0167L80.1555 19.481C80.448 20.3591 80.8804 21.1709 81.4241 21.8911L80.731 23.6915C80.7056 23.7547 80.7246 23.8273 80.7787 23.8684L82.5623 25.353C82.6132 25.3972 82.6895 25.4035 82.7467 25.3687Z" fill="white"/>
<path d="M87.5212 18.7577C86.856 18.5764 86.2898 18.0848 86.0454 17.3935C85.6525 16.2751 86.2496 15.0462 87.3758 14.656C87.9203 14.4655 88.5082 14.4993 89.028 14.7512C89.5477 15.0001 89.9407 15.4364 90.1294 15.9771C90.3212 16.5179 90.2872 17.1016 90.0335 17.6178C89.7829 18.134 89.3435 18.5242 88.799 18.7116C88.372 18.8622 87.9296 18.8683 87.5212 18.7577ZM88.5775 14.8867C88.2149 14.7874 87.8305 14.7998 87.471 14.9271C86.4959 15.2653 85.977 16.3297 86.3177 17.2979C86.6584 18.2661 87.7304 18.7813 88.7056 18.443C89.6808 18.1048 90.1996 17.0404 89.8589 16.0721C89.6933 15.6036 89.3557 15.225 88.9025 15.0077C88.7962 14.9581 88.69 14.9177 88.5775 14.8867Z" fill="#151515"/>
<path d="M87.5067 22.3373C87.4358 22.3189 87.3865 22.2485 87.3958 22.172C87.3958 22.1659 87.3989 22.1567 87.3989 22.1506C87.4173 22.0772 87.4882 22.0313 87.5652 22.0405C87.9348 22.0864 88.3136 22.0925 88.6894 22.0588C91.3753 21.8232 93.4205 19.614 93.5036 17.001C93.5098 16.7929 93.5036 16.5818 93.4851 16.3676C93.2295 13.4853 90.6576 11.3465 87.7562 11.6035C86.3516 11.7259 85.0765 12.3868 84.1709 13.4639C83.675 14.0513 83.3208 14.7276 83.1237 15.4466C82.9604 16.0402 82.9019 16.6644 82.9604 17.2947C83.0436 18.2433 83.3855 19.149 83.9461 19.9139C83.9738 19.9537 83.983 19.9996 83.9707 20.0424C83.9615 20.0761 83.943 20.1036 83.9122 20.125C83.8444 20.174 83.7489 20.1587 83.6997 20.0914C83.1083 19.2805 82.7479 18.3228 82.6586 17.3192C82.6001 16.6522 82.6586 15.9912 82.8311 15.364C83.0405 14.6021 83.4132 13.8892 83.9399 13.265C84.8978 12.1267 86.2469 11.4291 87.7315 11.2975C90.8024 11.0283 93.5221 13.2895 93.7931 16.3401C93.8547 17.0132 93.7901 17.6711 93.6207 18.2892C93.0231 20.4647 91.1104 22.1506 88.7202 22.3617C88.3537 22.3923 87.9872 22.3893 87.6268 22.3526C87.6145 22.3526 87.6052 22.3495 87.5929 22.3495C87.5713 22.3464 87.5529 22.3434 87.5313 22.3434C87.5221 22.3403 87.5128 22.3373 87.5067 22.3373Z" fill="#151515"/>
<path d="M33.8873 26.2865C33.9175 26.4143 34.023 26.512 34.1548 26.5233L37.8881 26.933C38.6529 28.5078 39.6776 29.9699 40.9434 31.2516L40.0844 34.8974C40.0543 35.0252 40.107 35.1567 40.2201 35.2281L44.0287 37.6261C44.1417 37.6975 44.2849 37.6862 44.3866 37.6073L47.3138 35.2657C49.0203 35.8558 50.7834 36.149 52.5351 36.1602L54.5129 39.3475C54.5808 39.4603 54.7164 39.5129 54.8445 39.4866L59.2371 38.4981C59.3651 38.468 59.4631 38.3628 59.4744 38.2312L59.885 34.5065C61.4635 33.7435 62.9289 32.7212 64.2136 31.4583L67.8678 32.3152C67.9959 32.3453 68.1277 32.2927 68.1993 32.1799L70.6028 28.38C70.6744 28.2673 70.6668 28.1244 70.584 28.023L68.237 25.1026C68.8284 23.3999 69.1223 21.6409 69.1336 19.8932L72.3282 17.9199C72.4412 17.8523 72.4939 17.717 72.4676 17.5892L71.4768 13.2067C71.4467 13.0789 71.3412 12.9812 71.2093 12.9699L67.476 12.5602C66.7112 10.9854 65.6866 9.5233 64.4208 8.24163L65.2797 4.59583C65.3098 4.46804 65.2571 4.33649 65.1441 4.26507L61.3354 1.86711C61.2224 1.7957 61.0792 1.80321 60.9775 1.8859L58.0504 4.22749C56.3438 3.63739 54.5808 3.34423 52.829 3.33295L50.8512 0.145688C50.7834 0.0329314 50.6478 -0.0196885 50.5197 0.00662141L46.1271 0.995124C45.999 1.02519 45.901 1.13043 45.8897 1.26198L45.4791 4.98672C43.9006 5.74971 42.4352 6.77204 41.1506 8.03491L37.4964 7.17796C37.3683 7.14789 37.2364 7.20051 37.1648 7.31327L34.7576 11.1132C34.686 11.2259 34.6935 11.3688 34.7764 11.4702L37.1234 14.3906C36.5319 16.0933 36.2381 17.8523 36.2268 19.6L33.0322 21.5733C32.9192 21.6409 32.8664 21.7762 32.8928 21.904L33.8873 26.2865Z" fill="url(#paint0_linear)"/>
<path d="M49.7737 22.9413C49.3895 22.5918 49.0693 22.1746 48.8282 21.6973C48.3045 20.6712 48.2141 19.5023 48.5758 18.4048C48.9336 17.311 49.6984 16.4202 50.7306 15.8978C51.7591 15.3754 52.9307 15.2852 54.0307 15.646C56.2948 16.3864 57.538 18.8257 56.7959 21.0846C56.0537 23.3435 53.6088 24.5838 51.3447 23.8434C50.7495 23.6555 50.2183 23.3435 49.7737 22.9413ZM55.1533 17.0291C54.7804 16.6909 54.3359 16.424 53.8273 16.2586C52.893 15.9542 51.8985 16.0294 51.0207 16.4729C50.1467 16.9164 49.495 17.6718 49.1898 18.604C48.8847 19.5361 48.96 20.5284 49.4045 21.4041C49.8491 22.2761 50.6063 22.9263 51.5406 23.2308C53.4656 23.8584 55.5489 22.806 56.178 20.8854C56.6414 19.4722 56.1893 17.9725 55.1533 17.0291Z" fill="white"/>
<path d="M45.3397 27.8501C45.3057 27.82 45.2718 27.7899 45.2379 27.7561C45.2379 27.7561 45.2379 27.7561 45.2342 27.7523C45.2191 27.7373 45.2003 27.7223 45.1852 27.7072L45.1814 27.7035C45.14 27.6621 45.0985 27.6246 45.0571 27.5832C45.0533 27.5795 45.0496 27.5757 45.042 27.5682C44.978 27.508 44.978 27.4103 45.0345 27.3427L45.0383 27.3389C45.1023 27.275 45.204 27.275 45.2681 27.3351C45.8068 27.8651 46.4095 28.3387 47.0575 28.7446C51.5104 31.5485 57.2629 30.6652 60.6911 26.9067C61.1055 26.4519 61.486 25.9558 61.8251 25.4183C64.9782 20.4382 63.4826 13.8269 58.4873 10.681C54.0344 7.87707 48.2819 8.76033 44.8537 12.5189C44.4393 12.9737 44.0588 13.4698 43.7197 14.0073C42.6838 15.646 42.1111 17.5291 42.0659 19.4534C42.0659 19.4948 42.0509 19.5286 42.0245 19.5587C41.9943 19.5925 41.9491 19.6113 41.9002 19.6113C41.8098 19.6075 41.7419 19.5361 41.7419 19.4459C41.7872 17.4614 42.3748 15.522 43.4447 13.8344C43.7951 13.2819 44.1869 12.7707 44.6126 12.3009C48.1425 8.42957 54.0721 7.51624 58.6568 10.4066C63.7991 13.6465 65.3399 20.457 62.0925 25.5874C61.7422 26.1399 61.3504 26.6511 60.9247 27.1209C57.3948 30.9922 51.4652 31.9056 46.8804 29.0152C46.3342 28.677 45.8181 28.2823 45.3397 27.8501Z" fill="white"/>
<path d="M79.6957 69.1461C79.7824 69.2975 79.9521 69.3767 80.1253 69.3457L85.0203 68.4579C86.5895 70.1578 88.4464 71.6238 90.5422 72.7662L90.8367 77.6975C90.8471 77.8695 90.9649 78.0175 91.1346 78.0657L96.8818 79.6658C97.048 79.714 97.2282 79.6486 97.3286 79.5041L100.155 75.4401C102.546 75.5433 104.894 75.2473 107.125 74.6038L110.846 77.8867C110.978 78.0003 111.165 78.021 111.317 77.9384L116.52 75.0306C116.673 74.9445 116.753 74.7725 116.721 74.6038L115.828 69.7414C117.539 68.1826 119.015 66.3381 120.165 64.2562L125.129 63.9636C125.302 63.9533 125.451 63.8363 125.5 63.6677L127.111 57.9588C127.159 57.7936 127.093 57.6146 126.948 57.5148L122.856 54.7068C122.96 52.3324 122.662 49.9993 122.015 47.7831L125.32 44.0873C125.434 43.9565 125.455 43.7707 125.372 43.6193L122.444 38.4506C122.358 38.2992 122.188 38.22 122.015 38.251L117.12 39.1388C115.55 37.4389 113.694 35.9729 111.598 34.8304L111.303 29.8992C111.293 29.7271 111.175 29.5792 111.005 29.531L105.258 27.9343C105.092 27.8861 104.912 27.9515 104.811 28.096L101.985 32.1601C99.5942 32.0568 97.2455 32.3528 95.0145 32.9963L91.294 29.7134C91.1623 29.5998 90.9753 29.5792 90.8228 29.6618L85.6196 32.5696C85.4671 32.6556 85.3875 32.8242 85.4186 32.9963L86.3124 37.8587C84.6011 39.4176 83.1253 41.2621 81.9752 43.344L77.011 43.6365C76.8378 43.6468 76.6888 43.7638 76.6403 43.9324L75.0329 49.6414C74.9844 49.8066 75.0502 49.9855 75.1923 50.0853L79.2835 52.8933C79.1796 55.2677 79.4775 57.6009 80.1253 59.817L76.8204 63.5129C76.7061 63.6436 76.6853 63.8294 76.7685 63.9809L79.6957 69.1461Z" fill="url(#paint1_linear)"/>
<path d="M99.9892 59.9719C96.9615 59.4489 94.689 56.7819 94.7686 53.6401C94.8102 51.9677 95.51 50.4123 96.7294 49.2595C97.9488 48.1067 99.5493 47.4976 101.233 47.5389C104.711 47.6283 107.465 50.5086 107.375 53.9601C107.33 55.6326 106.634 57.188 105.414 58.3408C104.195 59.4936 102.594 60.1027 100.911 60.0614C100.595 60.0545 100.291 60.0235 99.9892 59.9719ZM101.818 49.6001C101.61 49.5657 101.399 49.5416 101.184 49.5382C98.8183 49.4763 96.8437 51.3414 96.7813 53.6917C96.7536 54.8308 97.1693 55.9113 97.9592 56.7372C98.749 57.5631 99.816 58.0345 100.963 58.0621C102.109 58.0896 103.197 57.6766 104.028 56.892C104.86 56.1075 105.334 55.0476 105.362 53.9085C105.39 52.7695 104.974 51.689 104.184 50.8631C103.543 50.192 102.719 49.755 101.818 49.6001Z" fill="white"/>
<path d="M98.6658 68.1552C98.1774 68.0726 97.6924 67.9624 97.2039 67.8282C96.3136 67.5805 95.4441 67.2501 94.6231 66.8441C94.5295 66.7993 94.436 66.7511 94.3425 66.703C94.3252 66.6926 94.3078 66.6858 94.2871 66.6754C94.1554 66.6066 94.0896 66.4621 94.1138 66.3244C94.1208 66.29 94.1312 66.259 94.1485 66.2246C94.2351 66.0629 94.436 66.001 94.6023 66.087C95.4822 66.5481 96.4175 66.9163 97.3841 67.1882C97.4637 67.2088 97.5434 67.2329 97.6231 67.2536C103.034 68.661 108.57 66.7167 111.962 62.7008C113.188 61.2521 114.134 59.5315 114.691 57.5975C114.702 57.5666 114.709 57.5322 114.719 57.5012C114.851 57.0401 114.955 56.5755 115.034 56.1144C116.254 49.1425 111.968 42.2291 104.967 40.2814C97.4984 38.2029 89.7212 42.5492 87.6288 49.9684C87.5006 50.4261 87.3933 50.8872 87.3136 51.3518C86.9602 53.3683 87.0572 55.4365 87.6011 57.4083C87.615 57.4565 87.615 57.5081 87.608 57.5528C87.5873 57.6767 87.4972 57.7834 87.3655 57.8178C87.1854 57.866 87.0018 57.7627 86.9533 57.5838C86.3852 55.5156 86.2847 53.3477 86.6519 51.2348C86.7385 50.7461 86.8459 50.2643 86.981 49.786C89.1704 42.0124 97.3217 37.4596 105.144 39.6379C112.481 41.6786 116.967 48.9223 115.692 56.2279C115.609 56.7132 115.498 57.1984 115.36 57.6801C113.313 64.9652 106.017 69.425 98.6658 68.1552Z" fill="white"/>
<path d="M56.4853 46.098C52.6858 46.7624 50.1552 44.3193 48.2763 42.8417C45.7941 40.8934 43.9117 41.9004 43.9117 41.9004L46.6157 47.0047C50.5781 50.7316 54.5509 49.8146 57.0434 48.5342C57.0642 47.5341 56.7938 46.7071 56.4853 46.098Z" fill="white"/>
<path d="M61.7961 43.6413L60.5447 44.368C59.0471 45.3508 57.702 45.8837 56.4852 46.0948C56.7903 46.7038 57.0642 47.5343 57.0434 48.5275C58.6311 47.7143 59.6156 46.7523 59.6156 46.7523C62.4479 44.9355 61.7961 43.6413 61.7961 43.6413Z" fill="url(#paint2_linear)"/>
<path d="M53.3233 79.5919L53.0425 81.0453C52.5606 83.5403 53.5348 85.8277 55.223 86.153L57.2268 86.5406C58.9115 86.8659 60.6691 85.1045 61.1545 82.6095L61.4353 81.1561C61.4526 81.0592 61.4699 80.9623 61.4838 80.8654L67.956 37.3809L63.5881 36.54L53.3857 79.3047C53.3614 79.3981 53.3406 79.495 53.3233 79.5919ZM55.3721 79.8688C55.7361 77.9897 56.9356 76.6401 58.0553 76.8547C59.175 77.0692 59.7851 78.7683 59.4246 80.6474C59.0606 82.5264 57.8611 83.876 56.7414 83.6615C55.6217 83.4469 55.0116 81.7478 55.3721 79.8688Z" fill="#DFDFDF"/>
<path d="M64.2364 21.3762L62.6036 29.8163C62.4857 30.4184 62.6556 31.0379 63.0646 31.4981L65.1446 33.8478C65.7374 34.5191 66.7115 34.706 67.5123 34.3046L70.3203 32.8962C70.8681 32.6228 71.2563 32.1072 71.3742 31.5085L73.007 23.0684C73.2531 21.7949 74.8963 21.3866 75.6902 22.4109C77.5899 24.8678 78.46 28.1518 77.8118 31.5085C76.6366 37.5782 71.0899 40.8414 65.2417 39.7133C59.3935 38.5852 55.4588 33.4983 56.634 27.4286C57.2823 24.0719 59.3172 21.345 61.9934 19.7705C63.1062 19.113 64.4825 20.1062 64.2364 21.3762Z" fill="#DFDFDF"/>
<path d="M65.0303 21.5319L63.3975 29.972C63.2796 30.5742 63.4495 31.1936 63.8586 31.6538L65.9386 34.0035C66.5314 34.6748 67.5055 34.8617 68.3063 34.4603L71.1143 33.0519C71.662 32.7785 72.0503 32.2629 72.1681 31.6642L73.8009 23.2241C74.0471 21.9506 75.6902 21.5423 76.4841 22.5666C78.3838 25.0235 79.254 28.3075 78.6057 31.6642C77.4305 37.7339 71.8839 40.9972 66.0356 39.869C60.1874 38.7409 56.2528 33.654 57.4279 27.5843C58.0762 24.2276 60.1111 21.5008 62.7874 19.9262C63.9036 19.2653 65.2764 20.2584 65.0303 21.5319Z" fill="white"/>
<path d="M54.3177 79.7131L54.0369 81.1665C53.555 83.6616 54.5292 85.9489 56.2174 86.2742L58.2211 86.6618C59.9059 86.9871 61.6635 85.2257 62.1489 82.7307L62.4297 81.2773C62.447 81.1804 62.4643 81.0835 62.4782 80.9866L68.9504 37.5021L64.5824 36.6612L54.3801 79.4259C54.3558 79.5228 54.335 79.6162 54.3177 79.7131ZM56.3699 79.99C56.7339 78.1109 57.9334 76.7613 59.0531 76.9759C60.1729 77.1904 60.783 78.8895 60.4225 80.7686C60.0585 82.6476 58.859 83.9972 57.7393 83.7827C56.6195 83.5681 56.006 81.869 56.3699 79.99Z" fill="white"/>
<path d="M61.9593 45.5237C62.0043 45.2503 61.9246 44.9735 61.7443 44.7659C61.3942 44.361 60.7875 43.8039 60.3473 44.1776C59.6921 44.7347 60.4097 46.6415 60.4097 46.6415L61.1377 47.7488L61.1481 48.4548C61.5398 47.998 61.7755 46.8699 61.9593 45.5237Z" fill="url(#paint3_linear)"/>
<path d="M37.0305 54.6628C36.4862 55.2649 35.675 55.7944 35.103 56.1266C35.9836 57.1716 37.1692 58.2167 38.7326 59.2272L39.1937 60.2065L40.5769 58.4866C40.5769 58.4866 38.015 57.2755 37.0305 54.6628Z" fill="url(#paint4_linear)"/>
<path d="M45.2117 86.6274C45.2117 86.5962 45.2083 86.5651 45.2013 86.5374C44.7091 84.731 42.4141 83.6444 42.4141 83.6444L41.5128 83.7309C41.024 85.3401 41.1107 86.3194 41.2008 86.7519C41.2043 86.7658 41.2077 86.7762 41.2112 86.7865C41.9531 86.8419 43.4853 86.8557 45.2117 86.6274Z" fill="#77336C"/>
<path d="M41.1246 82.3986L41.5406 84.2258C41.5718 84.3608 41.6758 84.4577 41.8006 84.468C41.9532 84.4784 42.1716 84.4853 42.3934 84.4473C42.591 84.4161 42.7228 84.212 42.6846 83.9974L42.39 82.3744L41.1246 82.3986Z" fill="url(#paint5_linear)"/>
<path d="M53.1921 86.3955C53.1852 86.3817 53.1782 86.3678 53.1713 86.354C52.6756 85.6896 51.4206 84.3711 48.9801 83.8382L47.8153 83.8244C47.8153 83.8244 47.3126 84.7345 47.3369 86.4024C47.6038 86.5063 48.1238 86.6135 49.1188 86.6239C50.6545 86.6343 52.478 86.4682 53.1921 86.3955Z" fill="#77336C"/>
<path d="M47.5657 82.0631C47.5795 82.1496 47.7633 83.4646 47.8361 83.9733C47.8534 84.0944 47.9435 84.1878 48.0545 84.1982C48.2521 84.2189 48.5745 84.2328 48.8553 84.1705C49.0078 84.1359 49.1118 83.9906 49.1083 83.821L49.0702 81.7516L47.5657 82.0631Z" fill="url(#paint6_linear)"/>
<path d="M46.1755 58.03C46.1755 58.03 49.188 68.6398 49.3926 82.0596C49.396 82.3053 49.2296 82.5199 48.9904 82.5752C48.6368 82.6548 48.1203 82.7552 47.6905 82.7517C47.4617 82.7482 47.2641 82.5821 47.2225 82.3572C46.7857 80.056 44.2758 67.1034 42.9481 65.0167C42.9481 65.0167 42.3206 76.6093 42.7054 82.6098C42.7158 82.7586 42.6083 82.8901 42.4593 82.9109C42.234 82.942 41.8734 82.9663 41.4124 82.9282C41.239 82.9144 41.0934 82.7829 41.0657 82.6098C40.7468 80.6616 38.9129 69.0689 38.8228 60.6945C38.8193 60.2239 40.0257 58.1442 40.0257 58.1442L46.1755 58.03Z" fill="#77336C"/>
<path d="M49.8398 45.0496C49.3718 44.489 48.9627 43.8834 48.616 43.2605C48.1342 42.3885 48.5883 43.8315 48.4427 42.8383C44.8998 40.3848 39.6582 41.7587 37.6267 42.0528C36.9612 42.1497 36.3545 42.4888 35.9246 43.0079C34.219 45.0565 30.4924 50.6486 35.1065 56.1266C35.6785 55.7979 36.4862 55.2684 37.034 54.6628C36.507 53.2682 36.4342 51.4757 37.4361 49.2575C37.4742 49.4306 37.5227 49.6036 37.5782 49.7731C39.1035 54.3029 39.2526 58.0922 39.2665 58.9642C39.2699 59.0819 39.3427 59.1891 39.4537 59.2307C41.3638 59.9539 45.0038 59.4348 46.2275 59.2272C46.4528 59.1891 46.5984 58.978 46.5638 58.7531C45.8808 54.4171 48.831 47.2055 49.611 45.3991C49.6664 45.2676 49.7427 45.1499 49.8398 45.0496Z" fill="white"/>
<path d="M40.8334 38.333L40.5387 42.0668C40.5387 42.0668 42.6499 42.6586 44.1579 41.5547L43.0208 38.1876L40.8334 38.333Z" fill="url(#paint7_linear)"/>
<path d="M43.1908 34.0383C43.2428 34.0833 45.4025 38.1286 45.4025 38.1286L43.0625 39.3121L40.4452 35.7824C40.4452 35.7824 42.3276 33.2597 43.1908 34.0383Z" fill="#FCC2C2"/>
<path d="M41.492 35.862C41.4504 35.9727 41.4643 36.0938 41.5267 36.1907L42.74 38.1286C42.7574 38.1563 42.7816 38.184 42.8059 38.2082C42.948 38.3362 43.4368 38.7065 43.7974 38.184C44.1059 37.7376 44.3936 37.3327 44.7091 37.1631C44.8928 37.0628 45.1216 37.1355 45.2187 37.3189C45.4198 37.6995 45.8115 38.4747 46.0611 39.2117C46.1235 39.3952 46.0299 39.5993 45.8531 39.6754C45.3782 39.8762 44.4422 40.2464 43.6032 40.3779C43.4646 40.3987 43.3294 40.3433 43.2427 40.2326C42.8718 39.7447 41.8318 38.3881 41.4782 38.049C41.1488 37.7341 40.556 37.8656 40.2891 37.9487C40.1886 37.9798 40.0777 37.9694 39.9875 37.9141C39.7137 37.7549 39.2318 37.3569 39.6513 36.6614C39.7553 36.4883 39.6963 36.2599 39.5265 36.1527C39.2179 35.9589 38.8817 35.5921 39.1833 34.9796C39.4883 34.3601 40.0569 34.2944 40.4416 34.3359C40.6115 34.3532 40.7848 34.2598 40.8472 34.1006C40.875 34.0279 40.9304 33.9691 41.0379 33.9449C41.239 33.8999 41.3707 33.713 41.3256 33.5123C41.2494 33.1663 41.2944 32.7129 41.8422 32.398C42.851 31.8201 43.7592 32.7129 44.0019 33.4777C44.2446 34.2425 43.1144 34.8065 42.4003 34.9104C41.8768 34.9796 41.5995 35.5575 41.492 35.862Z" fill="white"/>
<path d="M41.9324 38.755C41.9324 38.755 41.454 37.44 40.8751 37.4988C40.2961 37.5577 39.8524 38.1425 40.5804 38.7792C41.4921 39.5682 41.9324 38.755 41.9324 38.755Z" fill="url(#paint8_linear)"/>
<path d="M44.4041 32.8099L38.9961 37.0144C38.9164 37.0767 38.802 37.0282 38.7881 36.9313L38.7327 36.5472C38.7327 36.5472 36.4828 34.2875 38.7951 32.2458C41.1073 30.2041 43.8356 32.5158 43.8356 32.5158L44.3591 32.6196C44.4492 32.6369 44.4769 32.7545 44.4041 32.8099Z" fill="#77336C"/>
</svg>
