<svg width="123" height="62" viewBox="0 0 123 62" fill="none" xmlns="http://www.w3.org/2000/svg">
<defs>
<linearGradient id="paint0_linear" x1="39.0115" y1="-35.2513" x2="0.621053" y2="62.2445" gradientUnits="userSpaceOnUse">
<stop stop-color="#B620E0"/>
<stop offset="1" stop-color="#F7B500"/>
</linearGradient>
</defs>
<path fill-rule="evenodd" clip-rule="evenodd" d="M109.8 0.684055C108.067 0.247681 106.285 0.0291409 104.496 0.0336887C97.2199 -0.319487 90.0883 2.11514 84.6074 6.82351L41.8595 43.6733C30.5626 53.3637 21.0557 50.0208 21.0557 50.0208C30.4167 65.7597 46.1157 63.9387 55.3442 56.2514L96.5541 20.143C103.422 14.1076 114.03 11.8704 122.993 19.2975C122.993 19.2975 123.736 4.78136 109.8 0.684055ZM50.7035 22.5911C51.7481 21.6784 52.7706 20.7361 53.7907 19.7958C59.5169 14.5181 65.1698 9.30805 74.252 9.80487C74.252 9.80487 70.8444 3.74346 65.7926 1.55823C63.262 0.387133 60.4704 -0.136417 57.6779 0.0363711C52.8515 0.0363711 48.3964 2.54679 39.8574 9.33661L21.2149 25.3486C9.95773 34.9871 0 32.7888 0 32.7888C8.35335 49.022 23.4292 45.7961 32.6576 38.0958L50.7035 22.5911ZM19.0203 13.4683C21.1028 8.51391 18.7023 2.82863 13.6586 0.769899C8.61482 -1.28883 2.83783 1.05859 0.75528 6.01301C-1.32727 10.9674 1.07325 16.6527 6.11699 18.7114C11.1607 20.7702 16.9377 18.4227 19.0203 13.4683Z" fill="url(#paint0_linear)"/>
</svg>
